<svg xmlns="http://www.w3.org/2000/svg" fill="none" viewBox="0 0 123 33"><path fill="#FF998B" d="M8 13v12h12L8 13z"/><path fill="#BDBDBD" d="M11 10v12h12V10H11z"/><path fill="#828282" d="M11 10v12h12L11 10z"/><path fill="#333" d="M32.354 17.148c0-1.562 1.056-2.618 2.64-2.618 1.386 0 1.98.924 1.98 2.178V23h2.354v-5.852c0-1.562 1.012-2.618 2.64-2.618 1.386 0 1.958.924 1.958 2.178V23h2.376v-6.908c0-2.244-1.056-3.696-3.234-3.696-1.914 0-3.124 1.122-3.63 3.102h-.242c-.154-1.914-1.122-3.102-3.058-3.102-1.76 0-3.058 1.056-3.63 2.992h-.198V12.66H30V23h2.354v-5.852zM51.068 10.9V8.986h-2.574V10.9h2.574zm-.11 12.1V12.66h-2.376V23h2.376zM60.493 16.686l2.222-.418c-.418-2.464-1.76-3.872-4.73-3.872-3.168 0-5.214 2.046-5.214 5.522 0 3.476 2.002 5.368 5.258 5.368 2.838 0 4.29-1.452 4.708-3.85l-2.178-.528c-.308 1.254-.88 2.288-2.552 2.288-1.848 0-2.816-1.276-2.816-3.366 0-2.266 1.056-3.344 2.75-3.344 1.628 0 2.244.88 2.552 2.2zM66.778 23v-4.906c0-2.112.77-2.882 2.948-2.882h.572V12.55h-.374c-1.496 0-2.464.726-3.058 3.234l-.198-.022V12.66h-2.244V23h2.354zM76.344 23.286c3.279 0 5.215-2.09 5.215-5.478 0-3.41-2.046-5.412-5.215-5.412-3.212 0-5.257 2.002-5.257 5.412 0 3.388 1.935 5.478 5.257 5.478zm-.021-8.888c1.914 0 2.882 1.254 2.882 3.388s-.924 3.454-2.882 3.454c-1.98 0-2.86-1.32-2.86-3.454 0-2.134.946-3.388 2.86-3.388zM87.305 23.286c2.97 0 4.245-1.232 4.245-3.146 0-1.628-.924-2.662-3.981-3.234-1.959-.352-2.398-.858-2.398-1.584 0-.77.615-1.232 1.825-1.232 1.233 0 1.849.484 2.135 1.76l2.133-.462c-.417-1.826-1.385-2.992-4.224-2.992-2.75 0-4.114 1.188-4.114 3.058 0 1.716.968 2.64 3.718 3.19 2.046.374 2.618.77 2.618 1.584 0 .88-.66 1.32-1.913 1.32-1.672 0-2.398-.792-2.728-2.046l-2.134.44c.374 1.98 1.474 3.344 4.818 3.344zM95.773 10.9V8.986h-2.574V10.9h2.574zm-.11 12.1V12.66h-2.376V23h2.376zM98.663 19.854c0 1.936.968 3.432 3.234 3.432 1.034 0 1.562-.132 2.332-.374l-.286-2.112c-.506.154-.968.264-1.496.264-1.034 0-1.408-.528-1.408-1.54v-4.95h3.036V12.66h-3.036V9.866h-2.376v2.794h-1.452v1.914h1.452v5.28zM110.245 14.222c1.65 0 2.442.924 2.53 2.706h-5.302c.22-1.848 1.166-2.706 2.772-2.706zm.066 9.042c2.772 0 4.07-1.276 4.554-3.146l-2.024-.572c-.286.99-.858 1.782-2.508 1.782-1.76 0-2.706-.946-2.882-2.816h7.458c.044-.528.044-.99.044-1.386 0-2.838-1.518-4.73-4.642-4.73-3.234 0-5.214 2.068-5.214 5.566 0 3.454 2.046 5.302 5.214 5.302z"/></svg>