<svg width="134" height="20" fill="none"
    xmlns="http://www.w3.org/2000/svg">
    <rect x=".5" width="133" height="20" rx="2" fill="#FFD6D1"/>
    <path d="M5.5 6.4V16h9.6L5.5 6.4z" fill="#FF998B"/>
    <path d="M7.9 4v9.6h9.6V4H7.9z" fill="#BDBDBD"/>
    <path d="M7.9 4v9.6h9.6L7.9 4z" fill="#828282"/>
    <path d="M29.606 11.54c0 .398-.075.748-.226 1.053-.15.304-.352.555-.607.752-.3.236-.632.404-.993.505-.358.1-.815.15-1.37.15h-2.836V6.002h2.369c.583 0 1.02.022 1.31.065.29.043.568.132.833.268.294.154.507.353.64.597.132.24.198.528.198.864 0 .38-.097.704-.29.973a2.1 2.1 0 01-.774.639v.043c.541.11.967.349 1.279.714.311.362.467.82.467 1.375zm-1.789-3.604a1.11 1.11 0 00-.096-.489.749.749 0 00-.312-.322 1.483 1.483 0 00-.612-.177 8.813 8.813 0 00-.892-.038h-1.267v2.31h1.375c.333 0 .598-.016.795-.049.197-.035.38-.107.547-.214a.876.876 0 00.355-.414c.072-.172.107-.374.107-.607zm.683 3.647c0-.322-.049-.578-.145-.768-.097-.19-.273-.351-.527-.483a1.733 1.733 0 00-.628-.172 7.793 7.793 0 00-.892-.043h-1.67v2.975h1.407a7.65 7.65 0 001.144-.07c.297-.05.54-.14.73-.268.201-.14.348-.3.44-.478.094-.18.14-.41.14-.693zM36.008 14h-1.01v-.666c-.34.268-.665.474-.977.618a2.44 2.44 0 01-1.031.214c-.63 0-1.121-.191-1.472-.574-.35-.387-.526-.953-.526-1.697V8h1.01v3.416c0 .305.014.566.042.785.03.214.09.399.183.553a.866.866 0 00.376.344c.154.071.378.107.671.107.262 0 .547-.068.854-.204.312-.136.602-.31.87-.521V8h1.01v6zm3.073-7.004h-1.14V5.95h1.14v1.047zM39.016 14h-1.01V8h1.01v6zm3.019 0h-1.01V5.643h1.01V14zm5.113-.054a5.476 5.476 0 01-1.22.172c-.612 0-1.077-.165-1.396-.494-.318-.33-.478-.858-.478-1.584V8.85h-.682V8h.682V6.276h1.01V8h2.084v.85h-2.084v2.733c0 .315.007.562.021.741.015.176.065.34.15.494a.744.744 0 00.323.317c.14.065.351.097.634.097.165 0 .337-.023.516-.07.179-.05.308-.091.386-.123h.054v.907zM59.786 8l-1.563 6h-.934l-1.542-4.625L54.217 14h-.93l-1.579-6h1.053l1.1 4.646L55.362 8h.832l1.536 4.646L58.771 8h1.015zm2.54-1.004h-1.138V5.95h1.139v1.047zM62.263 14h-1.01V8h1.01v6zm5.114-.054a5.483 5.483 0 01-1.22.172c-.612 0-1.078-.165-1.396-.494-.319-.33-.478-.858-.478-1.584V8.85H63.6V8h.682V6.276h1.01V8h2.084v.85H65.29v2.733c0 .315.008.562.022.741.014.176.064.34.15.494a.744.744 0 00.323.317c.14.065.35.097.633.097.165 0 .337-.023.516-.07a3.95 3.95 0 00.387-.123h.053v.907zm6.24.054h-1.01v-3.416c0-.276-.015-.534-.047-.773-.033-.244-.092-.434-.178-.57a.802.802 0 00-.386-.333c-.169-.075-.387-.113-.656-.113-.275 0-.564.068-.864.205-.301.136-.59.31-.865.52V14H68.6V5.643h1.01v3.023c.315-.26.64-.465.977-.612.337-.147.682-.22 1.037-.22.648 0 1.142.195 1.482.585.34.39.51.953.51 1.687V14zm14.567 0h-1.01v-3.416c0-.258-.012-.507-.037-.747a1.543 1.543 0 00-.145-.574.814.814 0 00-.355-.35c-.154-.078-.376-.118-.666-.118-.283 0-.566.072-.848.215a5.06 5.06 0 00-.85.537 4.817 4.817 0 01.038.612V14H83.3v-3.416c0-.265-.012-.516-.037-.752a1.545 1.545 0 00-.145-.575.784.784 0 00-.354-.343c-.154-.08-.376-.119-.666-.119-.276 0-.554.068-.833.205-.276.136-.551.31-.827.52V14h-1.01V8h1.01v.666a4.47 4.47 0 01.94-.612 2.35 2.35 0 011.004-.22c.408 0 .754.086 1.037.258.286.172.5.41.64.714.407-.344.78-.59 1.116-.741a2.564 2.564 0 011.08-.231c.659 0 1.144.2 1.455.602.316.397.473.954.473 1.67V14zm3.03-7.004h-1.14V5.95h1.14v1.047zM91.147 14h-1.01V8h1.01v6zm6.434-.376a6.453 6.453 0 01-.96.376c-.302.09-.622.134-.962.134-.434 0-.831-.062-1.193-.188a2.464 2.464 0 01-.929-.58 2.592 2.592 0 01-.607-.977c-.143-.394-.215-.854-.215-1.38 0-.982.269-1.752.806-2.31.54-.559 1.253-.838 2.138-.838.343 0 .68.048 1.01.145.332.097.637.215.912.354v1.123h-.053a3.824 3.824 0 00-.956-.553 2.59 2.59 0 00-.956-.194c-.573 0-1.026.194-1.36.58-.329.384-.493.947-.493 1.692 0 .724.16 1.28.483 1.67.326.387.782.58 1.37.58a2.728 2.728 0 001.192-.29 4.228 4.228 0 00.72-.457h.053v1.113zm5.044-4.522h-.054a4 4 0 00-.94-.102c-.311 0-.612.07-.902.209-.29.136-.569.313-.838.532V14h-1.01V8h1.01v.887c.401-.323.754-.55 1.058-.682.308-.136.621-.205.94-.205.176 0 .303.006.381.017.079.007.197.023.355.048v1.037zm6.064 1.9c0 .978-.251 1.75-.752 2.316-.501.566-1.173.848-2.014.848-.849 0-1.524-.282-2.025-.848-.498-.566-.747-1.338-.747-2.315 0-.978.249-1.75.747-2.315.501-.57 1.176-.854 2.025-.854.841 0 1.513.285 2.014.854.501.566.752 1.337.752 2.315zm-1.042 0c0-.776-.152-1.353-.457-1.729-.304-.38-.726-.569-1.267-.569-.548 0-.974.19-1.278.57-.301.375-.452.952-.452 1.729 0 .752.153 1.323.457 1.713.304.387.729.58 1.273.58.537 0 .958-.191 1.262-.574.308-.387.462-.96.462-1.72zm6.896 1.268c0 .548-.227.998-.682 1.349-.451.35-1.069.526-1.853.526-.444 0-.852-.052-1.224-.156a5.625 5.625 0 01-.93-.349v-1.133h.054c.319.24.673.431 1.064.575.39.14.764.209 1.122.209.444 0 .792-.072 1.042-.215.251-.143.376-.369.376-.677 0-.236-.068-.415-.204-.537-.136-.121-.397-.225-.784-.311-.143-.032-.331-.07-.564-.113a8.766 8.766 0 01-.628-.14c-.527-.14-.901-.343-1.123-.612-.218-.272-.328-.605-.328-.999 0-.247.05-.48.151-.698.104-.219.259-.414.467-.586a2.2 2.2 0 01.763-.397c.311-.1.659-.15 1.042-.15.358 0 .719.044 1.085.134.368.086.675.191.918.317v1.08h-.054a3.54 3.54 0 00-.94-.479 3.191 3.191 0 00-1.085-.199c-.368 0-.68.072-.934.215-.254.14-.381.35-.381.629 0 .247.077.433.231.558.15.126.393.228.73.306.186.043.394.086.623.13.233.042.426.082.58.118.469.107.831.291 1.085.553.254.265.381.616.381 1.053zm2.536-5.274h-1.139V5.95h1.139v1.047zM117.015 14h-1.01V8h1.01v6zm5.113-.054a5.429 5.429 0 01-1.219.172c-.612 0-1.078-.165-1.396-.494-.319-.33-.478-.858-.478-1.584V8.85h-.682V8h.682V6.276h1.009V8h2.084v.85h-2.084v2.733c0 .315.008.562.022.741.014.176.064.34.15.494a.747.747 0 00.323.317c.139.065.35.097.633.097.165 0 .337-.023.516-.07a3.98 3.98 0 00.387-.123h.053v.907zm6.247-2.841h-4.42c0 .369.055.691.166.967.111.272.263.496.457.671.186.172.406.3.66.387.258.086.541.129.849.129.408 0 .818-.08 1.23-.242.415-.165.711-.326.886-.483h.054v1.1c-.34.144-.688.264-1.042.36a4.23 4.23 0 01-1.117.146c-.996 0-1.773-.269-2.331-.806-.559-.54-.838-1.307-.838-2.299 0-.981.266-1.76.8-2.336.537-.577 1.243-.865 2.116-.865.809 0 1.433.236 1.869.709.441.473.661 1.144.661 2.014v.548zm-.983-.774c-.003-.53-.138-.94-.403-1.23-.261-.29-.66-.435-1.197-.435-.541 0-.973.16-1.295.479a1.86 1.86 0 00-.542 1.187h3.437z" fill="#0D1117"/>
</svg>
